<svg width="110" height="110" viewBox="0 0 110 110" fill="none" xmlns="http://www.w3.org/2000/svg">
<path d="M39.7221 100.955C26.6443 96.7999 16.9888 88.4888 11.3666 76.3888C8.18878 69.6666 7.94434 67.8332 7.94434 54.9999C7.94434 42.1666 8.18878 40.3332 11.3666 33.4888C15.7666 24.0777 24.0777 15.7666 33.611 11.3666C39.4777 8.7999 43.2666 7.94435 52.0666 7.57768C74.4332 6.5999 90.0777 15.2777 98.6332 33.611C101.811 40.3332 102.055 42.1666 102.055 54.9999C102.055 67.8332 101.811 69.6666 98.6332 76.3888C92.8888 88.611 83.2332 97.0443 70.8888 100.711C63.0666 103.033 46.6888 103.155 39.7221 100.955ZM61.5999 53.2888C63.311 44.611 64.7777 36.6666 64.7777 35.5666C64.6554 30.9221 62.4554 37.8888 59.8888 51.0888L57.0777 64.7777H52.311C49.011 64.7777 45.8332 63.6777 42.411 61.3555C35.9332 56.9555 33.1221 55.3666 34.8332 57.0777C35.5666 57.811 40.6999 61.4777 46.4443 65.2666C53.6554 70.0332 56.9554 71.6221 57.5666 70.5221C58.0554 69.7888 59.8888 61.9666 61.5999 53.2888Z" fill="#1F2A30"/>
<path d="M43.8775 69.5444C28.9664 59.8889 27.0109 57.4444 31.2886 53.2889C34.0998 50.4777 35.4442 50.8444 43.8775 56.2222C48.0331 58.9111 51.822 61.1111 52.4331 61.1111C53.0442 61.1111 54.7553 54.7555 56.222 47.0555C57.6886 39.3555 59.6442 32.1444 60.4998 31.0444C62.3331 28.4778 67.8331 29.5778 68.9331 32.5111C70.0331 35.4444 62.3331 73.2111 60.2553 75.2889C57.4442 77.9777 55.9775 77.4889 43.8775 69.5444Z" fill="#8696A0"/>
</svg>
